<svg xmlns="http://www.w3.org/2000/svg" viewBox="0 0 410 404" fill="none"><path d="M399.641 59.525 215.643 388.545c-3.72 6.666-13.266 6.683-17.01.03L10.34 59.558c-4.088-7.151 2.071-15.918 10.107-14.418l184.06 34.37a9.92 9.92 0 0 0 3.631-.005l181.38-34.338c8.03-1.52 14.206 7.234 10.123 14.358Z" fill="#41D1FF"/><path d="M292.965.016 156.412 26.78a4.955 4.955 0 0 0-4.017 4.065l-8.406 48.936a4.955 4.955 0 0 0 5.896 5.713l37.992-7.217a4.955 4.955 0 0 1 5.807 6.303l-11.281 33.78a4.955 4.955 0 0 0 6.346 6.208l23.47-8.295a4.955 4.955 0 0 1 6.295 6.288l-17.926 53.478c-1.12 3.34 2.7 6.142 5.518 4.052l1.883-1.396 111.28-222.214c1.864-3.72-1.336-8.004-5.482-7.192Z" fill="#BD34FE"/><path d="M245.233.516 144.51 20.25a2.477 2.477 0 0 0-2.01 2.032l-6.2 36.111a2.477 2.477 0 0 0 2.948 2.857l28.002-5.32a2.477 2.477 0 0 1 2.904 3.151l-8.316 24.904a2.477 2.477 0 0 0 3.173 3.104l17.3-6.113a2.477 2.477 0 0 1 3.148 3.146l-13.723 40.937c-.56 1.67 1.35 3.071 2.759 2.026l71.592-142.93c.932-1.86-.668-4.002-2.741-3.596Z" fill="#FFEA83"/></svg>
